<svg width="41" height="41" viewBox="0 0 41 41" fill="none" xmlns="http://www.w3.org/2000/svg">
<circle cx="20.126" cy="20.6284" r="20" fill="#078E14"/>
<path d="M24.3586 19.7904C24.0769 19.18 23.2174 18.7216 21.4985 17.8048C19.9463 16.977 19.1702 16.5631 18.5368 16.6448C17.9839 16.7161 17.4859 17.0149 17.1628 17.4692C16.7926 17.9897 16.7926 18.8692 16.7926 20.6284C16.7926 22.3875 16.7926 23.2671 17.1628 23.7875C17.4859 24.2418 17.9839 24.5406 18.5368 24.6119C19.1702 24.6936 19.9463 24.2797 21.4985 23.4519C23.2174 22.5351 24.0769 22.0767 24.3586 21.4663C24.6039 20.9346 24.6039 20.3221 24.3586 19.7904Z" fill="white"/>
</svg>
