<svg width="127" height="31" viewBox="0 0 127 31" fill="none" xmlns="http://www.w3.org/2000/svg">
<path d="M4.95391 23V22.68L6.26591 22.36C7.14058 22.168 7.57791 21.6347 7.57791 20.76V2.52H4.85791C4.06858 2.52 3.50325 2.73333 3.16191 3.16C2.82058 3.56533 2.45791 4.13067 2.07391 4.856L0.921914 7.096H0.601914L0.761914 1.88H19.2259L19.3539 7.096H19.0339L17.8819 4.856C17.5192 4.13067 17.1672 3.56533 16.8259 3.16C16.4846 2.73333 15.9192 2.52 15.1299 2.52H12.4099V20.76C12.4099 21.6347 12.8472 22.168 13.7219 22.36L15.0339 22.68V23H4.95391ZM26.3229 23.48C24.7016 23.48 23.2936 23.1493 22.0989 22.488C20.9042 21.8053 19.9762 20.8453 19.3149 19.608C18.6749 18.3707 18.3549 16.92 18.3549 15.256C18.3549 13.592 18.6962 12.152 19.3789 10.936C20.0829 9.72 21.0322 8.78133 22.2269 8.12C23.4429 7.45867 24.8082 7.128 26.3229 7.128C27.8376 7.128 29.1922 7.45867 30.3869 8.12C31.5816 8.76 32.5202 9.688 33.2029 10.904C33.9069 12.12 34.2589 13.5707 34.2589 15.256C34.2589 16.9413 33.9282 18.4027 33.2669 19.64C32.6269 20.856 31.7096 21.8053 30.5149 22.488C29.3416 23.1493 27.9442 23.48 26.3229 23.48ZM26.3229 22.84C27.0696 22.84 27.6669 22.6267 28.1149 22.2C28.5629 21.7733 28.8829 21.016 29.0749 19.928C29.2882 18.84 29.3949 17.304 29.3949 15.32C29.3949 13.3147 29.2882 11.768 29.0749 10.68C28.8829 9.592 28.5629 8.83467 28.1149 8.408C27.6669 7.98133 27.0696 7.768 26.3229 7.768C25.5762 7.768 24.9682 7.98133 24.4989 8.408C24.0509 8.83467 23.7202 9.592 23.5069 10.68C23.3149 11.768 23.2189 13.3147 23.2189 15.32C23.2189 17.304 23.3149 18.84 23.5069 19.928C23.7202 21.016 24.0509 21.7733 24.4989 22.2C24.9682 22.6267 25.5762 22.84 26.3229 22.84ZM41.3314 23.48C40.4994 23.48 39.7314 23.32 39.0274 23C38.3447 22.68 37.8007 22.168 37.3954 21.464C37.0114 20.7387 36.8301 19.7893 36.8514 18.616L36.9474 10.392C36.9474 9.90133 36.8621 9.54933 36.6914 9.336C36.5207 9.12267 36.2541 8.97333 35.8914 8.888L35.5074 8.76V8.44L41.2354 7.32L41.5554 7.64L41.3954 12.184V19.896C41.3954 20.5787 41.5874 21.08 41.9714 21.4C42.3767 21.72 42.8781 21.88 43.4754 21.88C44.0727 21.88 44.6061 21.7947 45.0754 21.624C45.5447 21.4533 46.0141 21.1973 46.4834 20.856L46.6114 10.424C46.6114 9.93333 46.5367 9.592 46.3874 9.4C46.2381 9.18667 45.9607 9.03733 45.5554 8.952L45.2354 8.856V8.536L50.8354 7.32L51.1554 7.64L51.0594 12.184V20.856C51.0594 21.3253 51.1234 21.688 51.2514 21.944C51.3794 22.2 51.6567 22.4133 52.0834 22.584L52.4034 22.68V23L46.8034 23.32L46.5154 21.432C45.8114 22.008 45.0434 22.4987 44.2114 22.904C43.4007 23.288 42.4407 23.48 41.3314 23.48ZM53.6957 23V22.68L54.1757 22.552C54.6023 22.424 54.8903 22.232 55.0397 21.976C55.2103 21.72 55.2957 21.3893 55.2957 20.984V10.968C55.2957 10.4987 55.2103 10.1573 55.0397 9.944C54.8903 9.70933 54.6023 9.54933 54.1757 9.464L53.6957 9.336V9.016L59.1997 7.16L59.5197 7.48L59.8077 10.232V10.488C60.1063 9.89067 60.4903 9.34667 60.9597 8.856C61.4503 8.344 61.9837 7.928 62.5597 7.608C63.157 7.288 63.7437 7.128 64.3197 7.128C65.1303 7.128 65.749 7.352 66.1757 7.8C66.6023 8.248 66.8157 8.81333 66.8157 9.496C66.8157 10.2213 66.6023 10.7867 66.1757 11.192C65.7703 11.576 65.2797 11.768 64.7037 11.768C63.8077 11.768 63.0183 11.32 62.3357 10.424L62.2717 10.36C62.0583 10.0613 61.813 9.90133 61.5357 9.88C61.2583 9.83733 61.0023 9.96533 60.7677 10.264C60.5543 10.456 60.373 10.6907 60.2237 10.968C60.0957 11.224 59.9677 11.5227 59.8397 11.864V20.792C59.8397 21.6453 60.213 22.1787 60.9597 22.392L61.9837 22.68V23H53.6957Z" fill="#1D1B1B"/>
<path d="M67.8207 30.36V30.04L68.2047 29.912C68.994 29.6987 69.3887 29.1867 69.3887 28.376V10.968C69.3887 10.4987 69.3033 10.1467 69.1327 9.912C68.9833 9.67733 68.6953 9.51733 68.2687 9.432L67.8207 9.336V9.016L73.2607 7.16L73.5807 7.48L73.8687 8.472C74.5727 8.04533 75.3513 7.71467 76.2047 7.48C77.0793 7.24533 77.9753 7.128 78.8927 7.128C80.7273 7.128 82.178 7.832 83.2447 9.24C84.3327 10.6267 84.8767 12.6213 84.8767 15.224C84.8767 17.784 84.2793 19.8 83.0847 21.272C81.9113 22.744 80.2473 23.48 78.0927 23.48C76.4073 23.48 74.9887 23.2347 73.8367 22.744V28.28C73.8367 29.1333 74.2207 29.6667 74.9887 29.88L75.5967 30.04V30.36H67.8207ZM76.5567 22.552C77.6233 22.552 78.466 21.9973 79.0847 20.888C79.7247 19.7787 80.0447 17.9333 80.0447 15.352C80.0447 12.7707 79.746 10.968 79.1487 9.944C78.5513 8.89867 77.6873 8.376 76.5567 8.376C75.7673 8.376 74.8927 8.632 73.9327 9.144V22.04C74.7433 22.3813 75.618 22.552 76.5567 22.552ZM86.2917 23V22.68L86.6757 22.552C87.4437 22.296 87.8277 21.7627 87.8277 20.952V3.832C87.8277 3.40533 87.7423 3.08533 87.5717 2.872C87.401 2.63733 87.1023 2.46667 86.6757 2.36L86.2597 2.264V1.944L92.1157 0.567999L92.4997 0.855999L92.3717 5.336V16.28C92.3717 17.0693 92.3717 17.8587 92.3717 18.648C92.393 19.416 92.4037 20.184 92.4037 20.952C92.4037 21.3787 92.489 21.7307 92.6597 22.008C92.8303 22.264 93.1183 22.456 93.5237 22.584L93.9397 22.68V23H86.2917ZM101.019 23.48C100.187 23.48 99.4189 23.32 98.7149 23C98.0322 22.68 97.4882 22.168 97.0829 21.464C96.6989 20.7387 96.5176 19.7893 96.5389 18.616L96.6349 10.392C96.6349 9.90133 96.5496 9.54933 96.3789 9.336C96.2082 9.12267 95.9416 8.97333 95.5789 8.888L95.1949 8.76V8.44L100.923 7.32L101.243 7.64L101.083 12.184V19.896C101.083 20.5787 101.275 21.08 101.659 21.4C102.064 21.72 102.566 21.88 103.163 21.88C103.76 21.88 104.294 21.7947 104.763 21.624C105.232 21.4533 105.702 21.1973 106.171 20.856L106.299 10.424C106.299 9.93333 106.224 9.592 106.075 9.4C105.926 9.18667 105.648 9.03733 105.243 8.952L104.923 8.856V8.536L110.523 7.32L110.843 7.64L110.747 12.184V20.856C110.747 21.3253 110.811 21.688 110.939 21.944C111.067 22.2 111.344 22.4133 111.771 22.584L112.091 22.68V23L106.491 23.32L106.203 21.432C105.499 22.008 104.731 22.4987 103.899 22.904C103.088 23.288 102.128 23.48 101.019 23.48ZM119.107 23.48C118.061 23.48 117.123 23.352 116.291 23.096C115.459 22.8613 114.691 22.5627 113.987 22.2L114.019 18.392H114.339L115.427 20.312C115.896 21.1653 116.408 21.8053 116.963 22.232C117.539 22.6373 118.264 22.84 119.139 22.84C120.163 22.84 120.984 22.616 121.603 22.168C122.243 21.6987 122.563 21.08 122.563 20.312C122.563 19.608 122.339 19.032 121.891 18.584C121.443 18.136 120.611 17.7307 119.395 17.368L118.051 16.952C116.749 16.568 115.725 15.9707 114.979 15.16C114.232 14.3493 113.859 13.3573 113.859 12.184C113.859 10.776 114.413 9.58133 115.523 8.6C116.632 7.61867 118.221 7.128 120.291 7.128C121.123 7.128 121.901 7.224 122.627 7.416C123.373 7.58667 124.088 7.85333 124.771 8.216L124.579 11.672H124.259L123.139 9.688C122.733 8.984 122.328 8.49333 121.923 8.216C121.539 7.91733 120.952 7.768 120.163 7.768C119.437 7.768 118.755 7.97067 118.115 8.376C117.475 8.78133 117.155 9.35733 117.155 10.104C117.155 10.8293 117.421 11.4053 117.955 11.832C118.509 12.2587 119.32 12.6533 120.387 13.016L121.827 13.432C123.363 13.9013 124.461 14.552 125.123 15.384C125.784 16.1947 126.115 17.176 126.115 18.328C126.115 19.8853 125.496 21.1333 124.259 22.072C123.043 23.0107 121.325 23.48 119.107 23.48Z" fill="#FF492F"/>
</svg>
